<svg width="294" height="360" viewBox="0 0 294 360" fill="none" xmlns="http://www.w3.org/2000/svg">
<path d="M0 357.5C0 356.119 1.11929 355 2.5 355H291.5C292.881 355 294 356.119 294 357.5C294 358.881 292.881 360 291.5 360H2.49999C1.11928 360 0 358.881 0 357.5Z" fill="#D72323"/>
<path d="M80.6746 2.25C80.6746 1.00736 81.682 0 82.9246 0H256.175C257.417 0 258.425 1.00736 258.425 2.25C258.425 3.49264 257.417 4.5 256.175 4.5H82.9246C81.682 4.5 80.6746 3.49264 80.6746 2.25Z" fill="#D72323"/>
<path d="M80.6746 2.25C80.6746 1.00736 81.682 0 82.9246 0C84.1673 0 85.1746 1.00736 85.1746 2.25V357.75C85.1746 358.993 84.1673 360 82.9246 360C81.682 360 80.6746 358.993 80.6746 357.75V2.25Z" fill="#D72323"/>
<path d="M253.925 2.25C253.925 1.00736 254.932 0 256.175 0C257.417 0 258.425 1.00736 258.425 2.25L258.425 47.25C258.425 48.4926 257.417 49.5 256.175 49.5C254.932 49.5 253.925 48.4926 253.925 47.25V2.25Z" fill="#D72323"/>
<path d="M253.925 108H258.425V243H253.925V108Z" fill="#D72323"/>
<path d="M253.624 108.823C254.245 107.747 255.621 107.379 256.697 108C257.773 108.621 258.142 109.997 257.52 111.073L223.77 169.53C223.149 170.606 221.773 170.975 220.697 170.354C219.621 169.733 219.252 168.357 219.873 167.281L253.624 108.823Z" fill="#D72323"/>
<path fill-rule="evenodd" clip-rule="evenodd" d="M256.175 103.5C271.086 103.5 283.175 91.4117 283.175 76.5C283.175 61.5883 271.086 49.5 256.175 49.5C241.263 49.5 229.175 61.5883 229.175 76.5C229.175 91.4117 241.263 103.5 256.175 103.5ZM256.175 108C273.572 108 287.675 93.897 287.675 76.5C287.675 59.103 273.572 45 256.175 45C238.778 45 224.675 59.103 224.675 76.5C224.675 93.897 238.778 108 256.175 108Z" fill="#D72323"/>
</svg>
