<svg width="294" height="360" viewBox="0 0 294 360" fill="none" xmlns="http://www.w3.org/2000/svg">
<path d="M0 357.5C0 356.119 1.11929 355 2.5 355H291.5C292.881 355 294 356.119 294 357.5C294 358.881 292.881 360 291.5 360H2.49999C1.11928 360 0 358.881 0 357.5Z" fill="#D72323"/>
<path d="M80.6748 2.25C80.6748 1.00736 81.6822 0 82.9248 0H256.175C257.417 0 258.425 1.00736 258.425 2.25C258.425 3.49264 257.417 4.5 256.175 4.5H82.9248C81.6822 4.5 80.6748 3.49264 80.6748 2.25Z" fill="#D72323"/>
<path d="M80.6748 2.25C80.6748 1.00736 81.6822 0 82.9248 0C84.1674 0 85.1748 1.00736 85.1748 2.25V357.75C85.1748 358.993 84.1674 360 82.9248 360C81.6822 360 80.6748 358.993 80.6748 357.75V2.25Z" fill="#D72323"/>
<path d="M253.925 2.25C253.925 1.00736 254.932 0 256.175 0C257.417 0 258.425 1.00736 258.425 2.25V47.25C258.425 48.4926 257.417 49.5 256.175 49.5C254.932 49.5 253.925 48.4926 253.925 47.25V2.25Z" fill="#D72323"/>
</svg>
